<?xml version="1.0" encoding="UTF-8" standalone="no"?>
<!-- Created with Inkscape (http://www.inkscape.org/) -->

<svg
   width="17in"
   height="23.999998in"
   viewBox="0 0 431.80001 609.59996"
   version="1.1"
   id="svg308"
   inkscape:version="1.2.2 (732a01da63, 2022-12-09)"
   sodipodi:docname="Setup DEF 17x24.svg"
   xmlns:inkscape="http://www.inkscape.org/namespaces/inkscape"
   xmlns:sodipodi="http://sodipodi.sourceforge.net/DTD/sodipodi-0.dtd"
   xmlns="http://www.w3.org/2000/svg"
   xmlns:svg="http://www.w3.org/2000/svg"
   xmlns:rdf="http://www.w3.org/1999/02/22-rdf-syntax-ns#"
   xmlns:cc="http://creativecommons.org/ns#"
   xmlns:dc="http://purl.org/dc/elements/1.1/">
  <title
     id="title2362">svgOutput</title>
  <sodipodi:namedview
     id="namedview310"
     pagecolor="#ffffff"
     bordercolor="#000000"
     borderopacity="0.25"
     inkscape:showpageshadow="2"
     inkscape:pageopacity="0.0"
     inkscape:pagecheckerboard="0"
     inkscape:deskcolor="#d1d1d1"
     inkscape:document-units="mm"
     showgrid="false"
     inkscape:zoom="0.80896125"
     inkscape:cx="1320.2116"
     inkscape:cy="1953.7401"
     inkscape:window-width="1920"
     inkscape:window-height="991"
     inkscape:window-x="-9"
     inkscape:window-y="-9"
     inkscape:window-maximized="1"
     inkscape:current-layer="layer1" />
  <defs
     id="defs305" />
  <g
     inkscape:label="Layer 1"
     inkscape:groupmode="layer"
     id="layer1">
    <path
       d="m 232.1,54.300002 h -5.5 v 12.7 h 5.5 v 12.7 h -5.5 v 12.7 h 5.5 V 105.1 h -5.5 v 18.2 H 117.8 9 V 105.1 H 3.5 V 92.400002 H 9 v -12.7 H 3.5 v -12.7 H 9 v -12.7 H 3.5 V 41.600003 H 9 V 3.5 h 108.8 108.8 v 38.100003 h 5.5 z"
       fill="none"
       stroke="#ff0000"
       stroke-width="0.001mm"
       id="path3098"
       style="stroke-width:1;stroke-dasharray:none" />
    <text
       xml:space="preserve"
       style="font-size:5.64444px;font-family:'Baskerville Old Face';-inkscape-font-specification:'Baskerville Old Face, Normal';fill:#000000;stroke:#000000;stroke-width:0.264583;stroke-dasharray:none"
       x="16.502277"
       y="117.90589"
       id="text3471"><tspan
         sodipodi:role="line"
         id="tspan3469"
         style="stroke-width:0.264583;stroke-dasharray:none"
         x="16.502277"
         y="117.90589">F Back Panel</tspan></text>
    <path
       d="M 232.1,196.2 H 226.6 9 3.5 V 183.5 H 9 V 170.8 H 3.5 V 158.1 H 9 V 145.4 H 3.5 V 132.7 H 9 v -7.2 h 217.6 v 7.2 h 5.5 v 12.7 h -5.5 v 12.7 h 5.5 v 12.7 h -5.5 v 12.7 h 5.5 z"
       fill="none"
       stroke="#ff0000"
       stroke-width="0.001mm"
       id="path2313"
       style="stroke-width:1;stroke-dasharray:none" />
    <text
       xml:space="preserve"
       style="font-size:5.64444px;font-family:'Baskerville Old Face';-inkscape-font-specification:'Baskerville Old Face, Normal';fill:#000000;stroke:#000000;stroke-width:0.264583;stroke-dasharray:none"
       x="13.98479"
       y="192.44647"
       id="text2686"><tspan
         sodipodi:role="line"
         id="tspan2684"
         style="stroke-width:0.264583;stroke-dasharray:none"
         x="13.98479"
         y="192.44647">F Bottom Panel x2</tspan></text>
    <path
       d="M 232.1,269.2 H 226.6 8.9999996 3.5 V 256.5 H 8.9999996 V 243.8 H 3.5 V 231.1 H 8.9999996 V 218.4 H 3.5 v -12.7 h 5.4999996 v -7.2 H 226.6 v 7.2 h 5.5 v 12.7 h -5.5 v 12.7 h 5.5 v 12.7 h -5.5 v 12.7 h 5.5 z"
       fill="none"
       stroke="#ff0000"
       stroke-width="0.001mm"
       id="path2313-9"
       style="stroke-width:1;stroke-dasharray:none" />
    <text
       xml:space="preserve"
       style="font-size:5.64444px;font-family:'Baskerville Old Face';-inkscape-font-specification:'Baskerville Old Face, Normal';fill:#000000;stroke:#000000;stroke-width:0.264583;stroke-dasharray:none"
       x="13.998066"
       y="265.10379"
       id="text2686-6"><tspan
         sodipodi:role="line"
         id="tspan2684-2"
         style="stroke-width:0.264583;stroke-dasharray:none"
         x="13.998066"
         y="265.10379">F Bottom Panel x2</tspan></text>
    <path
       d="m 414.5,3.5 h 12.7 v 228.59998 h -12.7 z"
       fill="none"
       stroke="#ff0000"
       stroke-width="0.001mm"
       id="path1452"
       style="stroke-width:1;stroke-dasharray:none" />
    <text
       xml:space="preserve"
       style="font-size:5.64444px;font-family:'Baskerville Old Face';-inkscape-font-specification:'Baskerville Old Face, Normal';fill:#000000;stroke:#000000;stroke-width:0.264583;stroke-dasharray:none"
       x="8.3013268"
       y="-419.15335"
       id="text1825"
       transform="rotate(90)"><tspan
         sodipodi:role="line"
         id="tspan1823"
         style="stroke-width:0.264583;stroke-dasharray:none"
         x="8.3013268"
         y="-419.15335">F Front Panel x2</tspan></text>
    <path
       d="m 3.5,602.19631 v -12.7 h 228.6 v 12.7 z"
       fill="none"
       stroke="#ff0000"
       stroke-width="0.001mm"
       id="path1452-2"
       style="stroke-width:1;stroke-dasharray:none" />
    <text
       xml:space="preserve"
       style="font-size:5.64444px;font-family:'Baskerville Old Face';-inkscape-font-specification:'Baskerville Old Face, Normal';fill:#000000;stroke:#000000;stroke-width:0.264583;stroke-dasharray:none"
       x="7.0390611"
       y="597.87213"
       id="text1825-3"><tspan
         sodipodi:role="line"
         id="tspan1823-5"
         style="stroke-width:0.264583;stroke-dasharray:none"
         x="7.0390611"
         y="597.87213">F Front Panel x2</tspan></text>
    <path
       d="m 317.40181,92.39999 h 5.5 V 79.7 h 7.2 v -5.5 h -7.2 -5.5 V 28.9 h 5.5 V 16.2 h 7.2 v -5.5 h -7.2 -5.5 V 3.5 h 5.5 7.2 25.4 6.35 19.05 25.4 V 14.164 73.35 h -12.7 v 6.35 h -5.5 v 12.69999 h 5.5 v 38.1 l 12.7,-12.7 v 25.39999 l -12.7,12.7 h -25.4 l -45.3,-56.62499 -5.5,-6.875 m 25.4,-76.19999 h 12.7 v -5.5 h -12.7 v 5.5 m 38.1,63.5 v -5.5 h -12.7 v 5.5 h 12.7 m 12.7,-50.8 h -5.5 v 12.7 h 5.5 V 28.9 m 0,25.4 h -5.5 V 67 h 5.5 V 54.3 m -25.4,-38.1 h 12.7 V 14.164 10.7 h -12.7 v 3.464 2.036 m -12.7,58 h -12.7 v 5.5 h 12.7 z"
       fill="none"
       stroke="#ff0000"
       stroke-width="0.001mm"
       id="path7428"
       style="stroke-width:1;stroke-dasharray:none" />
    <text
       xml:space="preserve"
       style="font-style:normal;font-variant:normal;font-weight:normal;font-stretch:normal;font-size:5.64444px;font-family:'Baskerville Old Face';-inkscape-font-specification:'Baskerville Old Face, Normal';font-variant-ligatures:normal;font-variant-caps:normal;font-variant-numeric:normal;font-variant-east-asian:normal;fill:#000000;fill-opacity:1;stroke:#000000;stroke-width:0.264583;stroke-dasharray:none"
       x="9.2604513"
       y="-397.93994"
       id="text7801"
       transform="rotate(90)"><tspan
         sodipodi:role="line"
         id="tspan7799"
         style="stroke-width:0.264583;stroke-dasharray:none"
         x="9.2604513"
         y="-397.93994">F Side Panel x2</tspan></text>
    <path
       d="m 235.5,227 h 5.5 v 12.7 h 7.2 v 5.5 h -7.2 -5.5 v 45.3 h 5.5 v 12.7 h 7.2 v 5.5 h -7.2 -5.5 v 7.2 h 5.5 7.2 25.4 6.35 19.05 25.4 V 305.236 246.05 h -12.7 v -6.35 h -5.5 V 227 h 5.5 v -38.1 l 12.7,12.7 V 176.2 L 311.7,163.5 H 286.3 L 241,220.125 235.5,227 m 25.4,76.2 h 12.7 v 5.5 h -12.7 v -5.5 M 299,239.7 v 5.5 h -12.7 v -5.5 H 299 m 12.7,50.8 h -5.5 v -12.7 h 5.5 v 12.7 m 0,-25.4 h -5.5 v -12.7 h 5.5 v 12.7 m -25.4,38.1 H 299 v 2.036 3.464 h -12.7 v -3.464 -2.036 m -12.7,-58 h -12.7 v -5.5 h 12.7 z"
       fill="none"
       stroke="#ff0000"
       stroke-width="0.001mm"
       id="path7428-5"
       style="stroke-width:1;stroke-dasharray:none" />
    <text
       xml:space="preserve"
       style="font-style:normal;font-variant:normal;font-weight:normal;font-stretch:normal;font-size:5.64444px;font-family:'Baskerville Old Face';-inkscape-font-specification:'Baskerville Old Face, Normal';font-variant-ligatures:normal;font-variant-caps:normal;font-variant-numeric:normal;font-variant-east-asian:normal;fill:#000000;fill-opacity:1;stroke:#000000;stroke-width:0.264583;stroke-dasharray:none"
       x="-308.58295"
       y="318.24667"
       id="text7801-6"
       transform="rotate(-90)"><tspan
         sodipodi:role="line"
         id="tspan7799-8"
         style="stroke-width:0.264583;stroke-dasharray:none"
         x="-308.58295"
         y="318.24667">F Side Panel x2</tspan></text>
    <path
       d="M 232.1,424.9 H 226.6 117.8 9.0000002 3.5 V 412.2 H 9.0000002 V 399.5 H 3.5 V 386.8 H 9.0000002 V 374.1 H 3.5 V 361.4 H 9.0000002 V 348.7 H 3.5 V 336 H 9.0000002 V 323.3 H 3.5 V 310.6 H 9.0000002 V 272.5 H 117.8 226.6 v 38.1 h 5.5 v 12.7 h -5.5 V 336 h 5.5 v 12.7 h -5.5 v 12.7 h 5.5 v 12.7 h -5.5 v 12.7 h 5.5 v 12.7 h -5.5 v 12.7 h 5.5 z"
       fill="none"
       stroke="#ff0000"
       stroke-width="0.001mm"
       id="path6"
       style="stroke-width:1;stroke-dasharray:none" />
    <text
       xml:space="preserve"
       style="font-size:5.64444px;font-family:'Baskerville Old Face';-inkscape-font-specification:'Baskerville Old Face, Normal';fill:#000000;fill-opacity:1;stroke:#000000;stroke-width:0.264583;stroke-dasharray:none"
       x="14.44394"
       y="421.86432"
       id="text903"><tspan
         id="tspan901"
         style="font-style:normal;font-variant:normal;font-weight:normal;font-stretch:normal;font-size:5.64444px;font-family:'Baskerville Old Face';-inkscape-font-specification:'Baskerville Old Face, Normal';font-variant-ligatures:normal;font-variant-caps:normal;font-variant-numeric:normal;font-variant-east-asian:normal;fill:#000000;fill-opacity:1;stroke-width:0.264583;stroke-dasharray:none"
         x="14.44394"
         y="421.86432"
         sodipodi:role="line">E Back Panel</tspan></text>
    <path
       d="m 398.03676,602.48252 v -5.5 h -12.70001 v 5.5 h -12.69999 v -5.5 h -6.35 V 379.38251 h 6.35 v -5.5 h 12.69999 v 5.5 h 12.70001 v -5.5 h 12.69999 v 5.5 h 12.7 v 217.60001 h -12.7 v 5.5 z"
       fill="none"
       stroke="#ff0000"
       stroke-width="0.001mm"
       id="path148"
       style="stroke-width:1;stroke-dasharray:none" />
    <text
       xml:space="preserve"
       style="font-size:5.64444px;font-family:'Baskerville Old Face';-inkscape-font-specification:'Baskerville Old Face, Normal';fill:#000000;stroke:#000000;stroke-width:0.264583;stroke-dasharray:none"
       x="384.84058"
       y="-370.73602"
       id="text922"
       transform="rotate(90)"><tspan
         sodipodi:role="line"
         id="tspan920"
         style="stroke-width:0.264583;stroke-dasharray:none"
         x="384.84058"
         y="-370.73602">E Bottom Panel</tspan></text>
    <path
       d="M 239.5,602.1 V 596.6 487.8 379 373.5 h 12.7 v 5.5 h 12.7 v -5.5 h 12.7 v 5.5 h 12.7 v -5.5 H 303 v 5.5 h 12.7 v -5.5 h 12.7 v 5.5 h 12.7 v -5.5 h 12.7 v 5.5 h 6.35 v 108.8 108.8 h -6.35 v 5.5 h -12.7 v -5.5 h -12.7 v 5.5 h -12.7 v -5.5 H 303 v 5.5 h -12.7 v -5.5 h -12.7 v 5.5 h -12.7 v -5.5 h -12.7 v 5.5 z"
       fill="none"
       stroke="#ff0000"
       stroke-width="0.001mm"
       id="path4664"
       style="stroke-width:1;stroke-dasharray:none" />
    <text
       xml:space="preserve"
       style="font-size:5.64444px;font-family:'Baskerville Old Face';-inkscape-font-specification:'Baskerville Old Face, Normal';fill:#000000;stroke:#000000;stroke-width:0.264583;stroke-dasharray:none"
       x="382.03015"
       y="-243.46159"
       id="text5037"
       transform="rotate(90)"><tspan
         sodipodi:role="line"
         id="tspan5035"
         style="stroke-width:0.264583;stroke-dasharray:none"
         x="382.03015"
         y="-243.46159">E Front Panel</tspan></text>
    <path
       d="m 155.9,508.27896 12.7,12.70001 v 25.40001 l -17.014,20.4168 -4.861,5.83321 -9.875,11.85001 h -6.35 -44.449996 -6.35 H 20.514 16.2 3.5 v -12.70001 -63.50003 h 7.2 5.5 4.314 59.186004 v 12.70002 h 6.35 6.35 v 5.5 H 105.1 v -5.5 h 12.7 v 5.5 h 12.7 v -5.5 h 12.7 l -12.7,-12.70002 h 21.086 4.314 m -50.8,69.85003 v -5.5 H 92.400004 v 5.5 H 105.1 m 12.7,-5.5 v 5.5 h 12.69999 v -5.5 H 117.8 M 54.3,526.47898 v -5.5 H 41.6 v 5.5 h 12.7 m 12.69999,-5.5 v 5.5 h 12.700004 v -5.5 H 66.99999 m -38.1,0 h -8.386 -4.314 v 5.5 h 4.314 8.386 v -5.5 m 0,51.65001 h -8.386 -4.314 v 5.5 h 4.314 8.386 v -5.5 m 12.7,0 v 5.5 h 12.7 v -5.5 h -12.7 m 25.4,0 v 5.5 h 12.700004 v -5.5 H 66.99999 m -50.8,-13.55 h -5.5 v 12.7 h 5.5 v -12.7 m -5.5,-25.40002 v 12.70002 h 5.5 v -12.70002 z"
       fill="none"
       stroke="#ff0000"
       stroke-width="0.001mm"
       id="path3895"
       style="stroke-width:1;stroke-dasharray:none" />
    <text
       xml:space="preserve"
       style="font-size:5.64444px;font-family:'Baskerville Old Face';-inkscape-font-specification:'Baskerville Old Face, Normal';fill:#000000;stroke:#000000;stroke-width:0.264583;stroke-dasharray:none"
       x="-44.438286"
       y="245.00877"
       id="text4268"
       transform="rotate(-90)"><tspan
         sodipodi:role="line"
         id="tspan4266"
         style="stroke-width:0.264583;stroke-dasharray:none"
         x="-44.438286"
         y="245.00877">E Side Panel x2</tspan></text>
    <path
       d="m 236.5,155.9 12.70001,12.70001 h 25.40001 l 20.4168,-17.014 5.83321,-4.861 11.85,-9.875 V 130.5 86.05 79.7 20.514 16.2 3.5 h -12.7 H 236.5 v 7.2 5.5 4.314 59.186 h 12.70002 v 6.35 6.35 h 5.5 v 12.70001 h -5.5 V 117.8 h 5.5 v 12.7 h -5.5 v 12.7 L 236.5,130.5 V 151.58601 155.9 m 69.85003,-50.79999 h -5.5 V 92.4 h 5.5 v 12.70001 m -5.5,12.69999 h 5.5 v 12.7 h -5.5 V 117.8 M 254.70002,54.3 h -5.5 V 41.6 h 5.5 v 12.7 m -5.5,12.7 h 5.5 v 12.7 h -5.5 V 67 m 0,-38.1 V 20.514 16.2 h 5.5 v 4.314 8.386 h -5.5 m 51.65001,0 V 20.514 16.2 h 5.5 v 4.314 8.386 h -5.5 m 0,12.7 h 5.5 v 12.7 h -5.5 V 41.6 m 0,25.4 h 5.5 v 12.7 h -5.5 V 67 m -13.55,-50.8 v -5.5 h 12.70002 v 5.5 h -12.70002 m -25.40002,-5.5 h 12.70002 v 5.5 h -12.70002 z"
       fill="none"
       stroke="#ff0000"
       stroke-width="0.001mm"
       id="path3895-5"
       style="stroke-width:1;stroke-dasharray:none" />
    <text
       xml:space="preserve"
       style="font-size:5.64444px;font-family:'Baskerville Old Face';-inkscape-font-specification:'Baskerville Old Face, Normal';fill:#000000;stroke:#000000;stroke-width:0.264583;stroke-dasharray:none"
       x="8.0838633"
       y="516.33832"
       id="text4268-6"><tspan
         sodipodi:role="line"
         id="tspan4266-9"
         style="stroke-width:0.264583;stroke-dasharray:none"
         x="8.0838633"
         y="516.33832">E Side Panel x2</tspan></text>
    <path
       d="M 9,504.7 V 492 H 3.5 V 479.3 H 9 V 453.9 H 3.5 V 441.2 H 9 v -12.7 h 217.6 v 12.7 h 5.5 v 12.7 h -5.5 v 25.4 h 5.5 V 492 h -5.5 v 12.7 z"
       fill="none"
       stroke="#ff0000"
       stroke-width="0.001mm"
       id="path10953"
       style="stroke-width:1;stroke-dasharray:none" />
    <text
       xml:space="preserve"
       style="font-style:normal;font-variant:normal;font-weight:normal;font-stretch:normal;font-size:3.175px;font-family:'Baskerville Old Face';-inkscape-font-specification:'Baskerville Old Face, Normal';font-variant-ligatures:normal;font-variant-caps:normal;font-variant-numeric:normal;font-variant-east-asian:normal;fill:#000000;stroke:#000000;stroke-width:0.264583;stroke-dasharray:none"
       x="13.889234"
       y="500.93872"
       id="text8524"><tspan
         sodipodi:role="line"
         id="tspan8522"
         style="stroke-width:0.264583"
         x="13.889234"
         y="500.93872">D Bottom Panel</tspan></text>
    <path
       d="m 423.48219,367.24445 v -25.4 h -12.7 v -63.5 l 12.7,12.7 v -25.4 l -12.7,-12.7 h -25.4 l -12.7,29.63333 -25.4,59.26667 v 7.2 5.5 12.7 h 25.4 38.1 12.7 m -12.7,-12.7 h -12.7 v -5.5 h 12.7 v 5.5 m -50.8,-5.5 h 12.7 v 5.5 h -12.7 z"
       fill="none"
       stroke="#ff0000"
       stroke-width="0.001mm"
       id="path12189"
       style="stroke-width:1;stroke-dasharray:none" />
    <text
       xml:space="preserve"
       style="font-style:normal;font-variant:normal;font-weight:normal;font-stretch:normal;font-size:3.175px;font-family:'Baskerville Old Face';-inkscape-font-specification:'Baskerville Old Face, Normal';font-variant-ligatures:normal;font-variant-caps:normal;font-variant-numeric:normal;font-variant-east-asian:normal;fill:#000000;stroke:#000000;stroke-width:0.264583;stroke-dasharray:none"
       x="-364.55795"
       y="418.68857"
       id="text9281"
       transform="rotate(-90)"><tspan
         sodipodi:role="line"
         id="tspan9279"
         style="stroke-width:0.264583"
         x="-364.55795"
         y="418.68857">D Side Panel x2</tspan></text>
    <path
       d="m 332.37625,160.96197 v 25.4 h 12.7 v 63.5 l -12.7,-12.7 v 25.4 l 12.7,12.7 h 25.4 l 12.7,-29.63333 25.4,-59.26667 v -7.2 -5.5 -12.7 h -25.4 -38.1 -12.7 m 12.7,12.7 h 12.7 v 5.5 h -12.7 v -5.5 m 50.8,5.5 h -12.7 v -5.5 h 12.7 z"
       fill="none"
       stroke="#ff0000"
       stroke-width="0.001mm"
       id="path12189-9"
       style="stroke-width:1;stroke-dasharray:none" />
    <text
       xml:space="preserve"
       style="font-style:normal;font-variant:normal;font-weight:normal;font-stretch:normal;font-size:3.175px;font-family:'Baskerville Old Face';-inkscape-font-specification:'Baskerville Old Face, Normal';font-variant-ligatures:normal;font-variant-caps:normal;font-variant-numeric:normal;font-variant-east-asian:normal;fill:#000000;stroke:#000000;stroke-width:0.264583;stroke-dasharray:none"
       x="164.11108"
       y="-337.1698"
       id="text9281-8"
       transform="rotate(90)"><tspan
         sodipodi:role="line"
         id="tspan9279-1"
         style="stroke-width:0.264583"
         x="164.11108"
         y="-337.1698">D Side Panel x2</tspan></text>
  </g>
  <metadata
     id="metadata2364">
    <rdf:RDF>
      <cc:Work
         rdf:about="">
        <dc:title>svgOutput</dc:title>
      </cc:Work>
    </rdf:RDF>
  </metadata>
</svg>
